<?xml version="1.0" encoding="utf-8"?>
<!-- Generator: Adobe Illustrator 21.0.2, SVG Export Plug-In . SVG Version: 6.00 Build 0)  -->
<svg version="1.1" id="Слой_1" xmlns="http://www.w3.org/2000/svg" xmlns:xlink="http://www.w3.org/1999/xlink" x="0px" y="0px"
	 viewBox="0 0 161.9 89.1" style="enable-background:new 0 0 161.9 89.1;" xml:space="preserve">
<style type="text/css">
	.st0{enable-background:new    ;}
	.st1{fill:#FFFFFF;}
</style>
<title>LOGO</title>
<g id="Слой_2">
	<g id="Слой_1-2">
		<g class="st0">
			<path class="st1" d="M22.7,18.9h17.3c4.3,0,8.2,1.1,11.5,3.2c3.4,2.1,6,5.1,7.8,8.9c1.9,3.8,2.8,8.2,2.8,13.1
				c0,4.9-0.9,9.3-2.8,13.1c-1.9,3.8-4.5,6.8-7.8,8.9c-3.4,2.1-7.2,3.2-11.5,3.2H22.7V18.9z M39.6,63c3.3,0,6.2-0.8,8.7-2.4
				c2.5-1.6,4.5-3.8,5.8-6.7c1.4-2.9,2-6.2,2-9.9c0-3.7-0.7-7-2-9.9c-1.4-2.9-3.3-5.1-5.8-6.7c-2.5-1.6-5.4-2.4-8.7-2.4H28.5V63
				H39.6z"/>
			<path class="st1" d="M76.8,18.9h5.8v50.4h-5.8V18.9z"/>
			<path class="st1" d="M136,18.9v50.4h-4.8l-24.6-37.6v37.6h-5.8V18.9h4.8l24.6,37.6V18.9H136z"/>
		</g>
		<rect x="7.6" y="84" class="st1" width="142" height="4"/>
		<rect x="7.6" class="st1" width="142" height="4"/>
	</g>
</g>
</svg>
