<?xml version="1.0" encoding="utf-8"?>
<!-- Generator: Adobe Illustrator 21.0.2, SVG Export Plug-In . SVG Version: 6.00 Build 0)  -->
<svg version="1.1" id="Слой_1" xmlns="http://www.w3.org/2000/svg" xmlns:xlink="http://www.w3.org/1999/xlink" x="0px" y="0px"
	 viewBox="0 0 161.9 89.1" style="enable-background:new 0 0 161.9 89.1;" xml:space="preserve">
<style type="text/css">
	.st0{enable-background:new    ;}
	.st1{fill:#FFFFFF;}
</style>
<title>LOGO</title>
<g id="Слой_2">
	<g id="Слой_1-2">
		<g class="st0">
			<path class="st1" d="M7.6,18.9h21.6c5.4,0,10.2,1.1,14.4,3.2c4.2,2.1,7.5,5.1,9.8,8.9c2.3,3.8,3.5,8.2,3.5,13.1
				c0,4.9-1.2,9.3-3.5,13.1c-2.3,3.8-5.6,6.8-9.8,8.9c-4.2,2.1-9,3.2-14.4,3.2H7.6V18.9z M28.8,63c4.1,0,7.8-0.8,11-2.4
				c3.1-1.6,5.6-3.8,7.3-6.7c1.7-2.9,2.6-6.2,2.6-9.9c0-3.7-0.9-7-2.6-9.9c-1.7-2.9-4.1-5.1-7.3-6.7c-3.1-1.6-6.8-2.4-11-2.4H14.9
				V63H28.8z"/>
			<path class="st1" d="M75.4,18.9h7.3v50.4h-7.3V18.9z"/>
			<path class="st1" d="M149.6,18.9v50.4h-6l-30.8-37.6v37.6h-7.3V18.9h6l30.8,37.6V18.9H149.6z"/>
		</g>
		<rect x="7.6" y="84" class="st1" width="142" height="4"/>
		<rect x="7.6" class="st1" width="142" height="4"/>
	</g>
</g>
</svg>
